<mxfile host="app.diagrams.net" modified="2023-06-12T13:19:04.309Z" agent="Mozilla/5.0 (Windows NT 10.0; Win64; x64) AppleWebKit/537.36 (KHTML, like Gecko) Chrome/114.0.0.0 Safari/537.36" etag="LA8MS9XjStiFz37YnAV1" version="21.3.8" type="github">
  <diagram name="Страница 1" id="xR59lH6d2-E03E9zhywz">
    <mxGraphModel dx="1434" dy="764" grid="1" gridSize="10" guides="1" tooltips="1" connect="1" arrows="1" fold="1" page="1" pageScale="1" pageWidth="827" pageHeight="1169" math="0" shadow="0">
      <root>
        <mxCell id="0" />
        <mxCell id="1" parent="0" />
        <mxCell id="UflsmpYnDKdmwoiEGrax-7" style="edgeStyle=orthogonalEdgeStyle;rounded=0;orthogonalLoop=1;jettySize=auto;html=1;entryX=0;entryY=0.5;entryDx=0;entryDy=0;endArrow=none;endFill=0;" parent="1" source="e6YBmaZZbLYmCsvvOriS-1" target="UflsmpYnDKdmwoiEGrax-2" edge="1">
          <mxGeometry relative="1" as="geometry" />
        </mxCell>
        <mxCell id="UflsmpYnDKdmwoiEGrax-9" style="edgeStyle=orthogonalEdgeStyle;rounded=0;orthogonalLoop=1;jettySize=auto;html=1;entryX=0;entryY=0.5;entryDx=0;entryDy=0;endArrow=none;endFill=0;" parent="1" source="e6YBmaZZbLYmCsvvOriS-1" target="e6YBmaZZbLYmCsvvOriS-13" edge="1">
          <mxGeometry relative="1" as="geometry" />
        </mxCell>
        <mxCell id="e6YBmaZZbLYmCsvvOriS-1" value="Пользователь" style="shape=umlActor;verticalLabelPosition=bottom;verticalAlign=top;html=1;" parent="1" vertex="1">
          <mxGeometry x="60" y="180" width="30" height="60" as="geometry" />
        </mxCell>
        <mxCell id="e6YBmaZZbLYmCsvvOriS-2" value="Редактор/модератор" style="shape=umlActor;verticalLabelPosition=bottom;verticalAlign=top;html=1;" parent="1" vertex="1">
          <mxGeometry x="540" y="760" width="30" height="60" as="geometry" />
        </mxCell>
        <mxCell id="UflsmpYnDKdmwoiEGrax-15" value="&amp;lt;&amp;lt;include&amp;gt;&amp;gt;" style="edgeStyle=orthogonalEdgeStyle;rounded=0;orthogonalLoop=1;jettySize=auto;html=1;entryX=0;entryY=0.5;entryDx=0;entryDy=0;dashed=1;startArrow=classic;startFill=1;endArrow=none;endFill=0;" parent="1" source="e6YBmaZZbLYmCsvvOriS-13" target="UflsmpYnDKdmwoiEGrax-13" edge="1">
          <mxGeometry relative="1" as="geometry" />
        </mxCell>
        <mxCell id="e6YBmaZZbLYmCsvvOriS-13" value="Открыть калькулятор" style="ellipse;whiteSpace=wrap;html=1;" parent="1" vertex="1">
          <mxGeometry x="190" y="430" width="140" height="70" as="geometry" />
        </mxCell>
        <mxCell id="UflsmpYnDKdmwoiEGrax-2" value="Открыть страницу фин. инструмента" style="ellipse;whiteSpace=wrap;html=1;" parent="1" vertex="1">
          <mxGeometry x="190" y="200" width="140" height="70" as="geometry" />
        </mxCell>
        <mxCell id="UflsmpYnDKdmwoiEGrax-13" value="Получить расчет" style="ellipse;whiteSpace=wrap;html=1;" parent="1" vertex="1">
          <mxGeometry x="560" y="430" width="140" height="70" as="geometry" />
        </mxCell>
        <mxCell id="UflsmpYnDKdmwoiEGrax-22" value="&amp;lt;&amp;lt;include&amp;gt;&amp;gt;" style="edgeStyle=orthogonalEdgeStyle;rounded=0;orthogonalLoop=1;jettySize=auto;html=1;entryX=0.5;entryY=1;entryDx=0;entryDy=0;dashed=1;" parent="1" source="UflsmpYnDKdmwoiEGrax-17" target="UflsmpYnDKdmwoiEGrax-2" edge="1">
          <mxGeometry relative="1" as="geometry" />
        </mxCell>
        <mxCell id="UflsmpYnDKdmwoiEGrax-17" value="Получить график и рейтинг фин. инструмента" style="ellipse;whiteSpace=wrap;html=1;" parent="1" vertex="1">
          <mxGeometry x="190" y="330" width="140" height="70" as="geometry" />
        </mxCell>
        <mxCell id="UflsmpYnDKdmwoiEGrax-25" value="&amp;lt;&amp;lt;extend&amp;gt;&amp;gt;" style="edgeStyle=orthogonalEdgeStyle;rounded=0;orthogonalLoop=1;jettySize=auto;html=1;entryX=1;entryY=0.5;entryDx=0;entryDy=0;dashed=1;" parent="1" source="UflsmpYnDKdmwoiEGrax-24" target="UflsmpYnDKdmwoiEGrax-17" edge="1">
          <mxGeometry relative="1" as="geometry" />
        </mxCell>
        <mxCell id="UflsmpYnDKdmwoiEGrax-24" value="Добавить в инвест. портфель" style="ellipse;whiteSpace=wrap;html=1;" parent="1" vertex="1">
          <mxGeometry x="560" y="320" width="140" height="70" as="geometry" />
        </mxCell>
      </root>
    </mxGraphModel>
  </diagram>
</mxfile>
